<mxfile host="app.diagrams.net" agent="Mozilla/5.0 (X11; Ubuntu; Linux x86_64; rv:142.0) Gecko/20100101 Firefox/142.0" version="28.2.1">
  <diagram name="Page-1" id="lBLj_1u3nFp1fMmoDWmK">
    <mxGraphModel dx="1501" dy="869" grid="1" gridSize="10" guides="1" tooltips="1" connect="1" arrows="1" fold="1" page="1" pageScale="1" pageWidth="1169" pageHeight="827" math="0" shadow="0">
      <root>
        <mxCell id="0" />
        <mxCell id="1" parent="0" />
        <mxCell id="8rWcteFT7_e4B7-Yw5ge-140" value="" style="html=1;dropTarget=0;whiteSpace=wrap;" vertex="1" parent="1">
          <mxGeometry x="370" y="150" width="500" height="430" as="geometry" />
        </mxCell>
        <mxCell id="8rWcteFT7_e4B7-Yw5ge-141" value="" style="shape=module;jettyWidth=8;jettyHeight=4;" vertex="1" parent="8rWcteFT7_e4B7-Yw5ge-140">
          <mxGeometry x="1" width="20" height="20" relative="1" as="geometry">
            <mxPoint x="-27" y="7" as="offset" />
          </mxGeometry>
        </mxCell>
        <mxCell id="8rWcteFT7_e4B7-Yw5ge-1" value="«component»&lt;br&gt;&lt;b&gt;User Domain&lt;/b&gt;&amp;nbsp;&lt;b&gt;Models&lt;/b&gt;" style="html=1;dropTarget=0;whiteSpace=wrap;" vertex="1" parent="1">
          <mxGeometry x="550" y="380" width="140" height="70" as="geometry" />
        </mxCell>
        <mxCell id="8rWcteFT7_e4B7-Yw5ge-2" value="" style="shape=module;jettyWidth=8;jettyHeight=4;" vertex="1" parent="8rWcteFT7_e4B7-Yw5ge-1">
          <mxGeometry x="1" width="20" height="20" relative="1" as="geometry">
            <mxPoint x="-27" y="7" as="offset" />
          </mxGeometry>
        </mxCell>
        <mxCell id="8rWcteFT7_e4B7-Yw5ge-3" value="&lt;div&gt;«component»&lt;b&gt;&lt;br&gt;&lt;/b&gt;&lt;/div&gt;&lt;div&gt;&lt;b&gt;Replic Domain&lt;/b&gt;&amp;nbsp;&lt;b&gt;Models&lt;/b&gt;&lt;/div&gt;" style="html=1;dropTarget=0;whiteSpace=wrap;" vertex="1" parent="1">
          <mxGeometry x="410" y="230" width="140" height="70" as="geometry" />
        </mxCell>
        <mxCell id="8rWcteFT7_e4B7-Yw5ge-4" value="" style="shape=module;jettyWidth=8;jettyHeight=4;" vertex="1" parent="8rWcteFT7_e4B7-Yw5ge-3">
          <mxGeometry x="1" width="20" height="20" relative="1" as="geometry">
            <mxPoint x="-27" y="7" as="offset" />
          </mxGeometry>
        </mxCell>
        <mxCell id="8rWcteFT7_e4B7-Yw5ge-5" value="&lt;div&gt;«component»&lt;b&gt;&lt;br&gt;&lt;/b&gt;&lt;/div&gt;&lt;div&gt;&lt;b&gt;Report Domain&lt;/b&gt;&amp;nbsp;&lt;b&gt;Models&lt;/b&gt;&lt;/div&gt;" style="html=1;dropTarget=0;whiteSpace=wrap;" vertex="1" parent="1">
          <mxGeometry x="690" y="230" width="160" height="70" as="geometry" />
        </mxCell>
        <mxCell id="8rWcteFT7_e4B7-Yw5ge-6" value="" style="shape=module;jettyWidth=8;jettyHeight=4;" vertex="1" parent="8rWcteFT7_e4B7-Yw5ge-5">
          <mxGeometry x="1" width="20" height="20" relative="1" as="geometry">
            <mxPoint x="-27" y="7" as="offset" />
          </mxGeometry>
        </mxCell>
        <mxCell id="8rWcteFT7_e4B7-Yw5ge-7" value="«component»&lt;br&gt;&lt;b&gt;Config Domain&lt;/b&gt;&amp;nbsp;&lt;b&gt;Models&lt;/b&gt;" style="html=1;dropTarget=0;whiteSpace=wrap;" vertex="1" parent="1">
          <mxGeometry x="550" y="480" width="150" height="70" as="geometry" />
        </mxCell>
        <mxCell id="8rWcteFT7_e4B7-Yw5ge-8" value="" style="shape=module;jettyWidth=8;jettyHeight=4;" vertex="1" parent="8rWcteFT7_e4B7-Yw5ge-7">
          <mxGeometry x="1" width="20" height="20" relative="1" as="geometry">
            <mxPoint x="-27" y="7" as="offset" />
          </mxGeometry>
        </mxCell>
        <mxCell id="8rWcteFT7_e4B7-Yw5ge-10" value="" style="rounded=0;orthogonalLoop=1;jettySize=auto;html=1;endArrow=oval;endFill=0;sketch=0;sourcePerimeterSpacing=0;targetPerimeterSpacing=0;endSize=10;" edge="1" parent="1" source="8rWcteFT7_e4B7-Yw5ge-1">
          <mxGeometry relative="1" as="geometry">
            <mxPoint x="750" y="385" as="sourcePoint" />
            <mxPoint x="620" y="340" as="targetPoint" />
            <Array as="points">
              <mxPoint x="620" y="360" />
            </Array>
          </mxGeometry>
        </mxCell>
        <mxCell id="8rWcteFT7_e4B7-Yw5ge-11" value="" style="ellipse;whiteSpace=wrap;html=1;align=center;aspect=fixed;fillColor=none;strokeColor=none;resizable=0;perimeter=centerPerimeter;rotatable=0;allowArrows=0;points=[];outlineConnect=1;" vertex="1" parent="1">
          <mxGeometry x="765" y="380" width="10" height="10" as="geometry" />
        </mxCell>
        <mxCell id="8rWcteFT7_e4B7-Yw5ge-13" value="User Domain Models" style="text;html=1;align=center;verticalAlign=middle;whiteSpace=wrap;rounded=0;fontSize=7;" vertex="1" parent="1">
          <mxGeometry x="630" y="340" width="50" height="30" as="geometry" />
        </mxCell>
        <mxCell id="8rWcteFT7_e4B7-Yw5ge-14" value="" style="rounded=0;orthogonalLoop=1;jettySize=auto;html=1;endArrow=halfCircle;endFill=0;endSize=6;strokeWidth=1;sketch=0;fontSize=12;curved=1;" edge="1" parent="1" source="8rWcteFT7_e4B7-Yw5ge-5">
          <mxGeometry relative="1" as="geometry">
            <mxPoint x="735" y="355" as="sourcePoint" />
            <mxPoint x="620" y="340" as="targetPoint" />
          </mxGeometry>
        </mxCell>
        <mxCell id="8rWcteFT7_e4B7-Yw5ge-15" value="" style="ellipse;whiteSpace=wrap;html=1;align=center;aspect=fixed;fillColor=none;strokeColor=none;resizable=0;perimeter=centerPerimeter;rotatable=0;allowArrows=0;points=[];outlineConnect=1;" vertex="1" parent="1">
          <mxGeometry x="710" y="350" width="10" height="10" as="geometry" />
        </mxCell>
        <mxCell id="8rWcteFT7_e4B7-Yw5ge-16" value="" style="rounded=0;orthogonalLoop=1;jettySize=auto;html=1;endArrow=halfCircle;endFill=0;endSize=6;strokeWidth=1;sketch=0;fontSize=12;curved=1;" edge="1" parent="1" source="8rWcteFT7_e4B7-Yw5ge-3">
          <mxGeometry relative="1" as="geometry">
            <mxPoint x="683" y="310" as="sourcePoint" />
            <mxPoint x="620" y="340" as="targetPoint" />
          </mxGeometry>
        </mxCell>
        <mxCell id="8rWcteFT7_e4B7-Yw5ge-17" value="" style="rounded=0;orthogonalLoop=1;jettySize=auto;html=1;endArrow=oval;endFill=0;sketch=0;sourcePerimeterSpacing=0;targetPerimeterSpacing=0;endSize=10;" edge="1" parent="1" source="8rWcteFT7_e4B7-Yw5ge-3">
          <mxGeometry relative="1" as="geometry">
            <mxPoint x="630" y="390" as="sourcePoint" />
            <mxPoint x="610" y="265" as="targetPoint" />
          </mxGeometry>
        </mxCell>
        <mxCell id="8rWcteFT7_e4B7-Yw5ge-18" value="Replic Domain Models" style="text;html=1;align=center;verticalAlign=middle;whiteSpace=wrap;rounded=0;fontSize=7;" vertex="1" parent="1">
          <mxGeometry x="585" y="270" width="50" height="30" as="geometry" />
        </mxCell>
        <mxCell id="8rWcteFT7_e4B7-Yw5ge-19" value="" style="rounded=0;orthogonalLoop=1;jettySize=auto;html=1;endArrow=halfCircle;endFill=0;endSize=6;strokeWidth=1;sketch=0;fontSize=12;curved=1;" edge="1" parent="1" source="8rWcteFT7_e4B7-Yw5ge-5">
          <mxGeometry relative="1" as="geometry">
            <mxPoint x="712" y="310" as="sourcePoint" />
            <mxPoint x="610" y="265" as="targetPoint" />
          </mxGeometry>
        </mxCell>
        <mxCell id="8rWcteFT7_e4B7-Yw5ge-72" value="" style="html=1;verticalAlign=bottom;labelBackgroundColor=none;endArrow=oval;endFill=0;endSize=8;rounded=0;" edge="1" parent="1" source="8rWcteFT7_e4B7-Yw5ge-5">
          <mxGeometry width="160" relative="1" as="geometry">
            <mxPoint x="900" y="160" as="sourcePoint" />
            <mxPoint x="770" y="320" as="targetPoint" />
          </mxGeometry>
        </mxCell>
        <mxCell id="8rWcteFT7_e4B7-Yw5ge-73" value="Report Domain Models" style="text;html=1;align=center;verticalAlign=middle;whiteSpace=wrap;rounded=0;fontSize=7;" vertex="1" parent="1">
          <mxGeometry x="720" y="320" width="55" height="30" as="geometry" />
        </mxCell>
        <mxCell id="8rWcteFT7_e4B7-Yw5ge-74" value="" style="html=1;verticalAlign=bottom;labelBackgroundColor=none;endArrow=oval;endFill=0;endSize=8;rounded=0;" edge="1" parent="1" source="8rWcteFT7_e4B7-Yw5ge-7">
          <mxGeometry width="160" relative="1" as="geometry">
            <mxPoint x="780" y="590" as="sourcePoint" />
            <mxPoint x="730" y="515" as="targetPoint" />
          </mxGeometry>
        </mxCell>
        <mxCell id="8rWcteFT7_e4B7-Yw5ge-75" value="Config Domain Models" style="text;html=1;align=center;verticalAlign=middle;whiteSpace=wrap;rounded=0;fontSize=7;" vertex="1" parent="1">
          <mxGeometry x="700" y="520" width="55" height="30" as="geometry" />
        </mxCell>
        <mxCell id="8rWcteFT7_e4B7-Yw5ge-78" value="«component»&lt;br&gt;&lt;b&gt;Domain Models&lt;/b&gt;" style="text;html=1;align=center;verticalAlign=middle;whiteSpace=wrap;rounded=0;" vertex="1" parent="1">
          <mxGeometry x="380" y="161" width="110" height="40" as="geometry" />
        </mxCell>
        <mxCell id="8rWcteFT7_e4B7-Yw5ge-128" value="" style="html=1;rounded=0;" vertex="1" parent="1">
          <mxGeometry x="860" y="309" width="20" height="21" as="geometry" />
        </mxCell>
        <mxCell id="8rWcteFT7_e4B7-Yw5ge-133" value="&lt;div&gt;&lt;div&gt;«delegate»&lt;/div&gt;&lt;/div&gt;" style="rounded=0;orthogonalLoop=1;jettySize=auto;html=1;dashed=1;dashPattern=8 8;spacingBottom=0;spacingTop=22;" edge="1" parent="1" source="8rWcteFT7_e4B7-Yw5ge-128">
          <mxGeometry relative="1" as="geometry">
            <mxPoint x="770" y="320" as="targetPoint" />
            <mxPoint x="665" y="473" as="sourcePoint" />
          </mxGeometry>
        </mxCell>
        <mxCell id="8rWcteFT7_e4B7-Yw5ge-134" value="" style="html=1;rounded=0;" vertex="1" parent="1">
          <mxGeometry x="860" y="504.5" width="20" height="21" as="geometry" />
        </mxCell>
        <mxCell id="8rWcteFT7_e4B7-Yw5ge-135" value="&lt;div&gt;&lt;div&gt;«delegate»&lt;/div&gt;&lt;/div&gt;" style="rounded=0;orthogonalLoop=1;jettySize=auto;html=1;dashed=1;dashPattern=8 8;spacingBottom=0;spacingTop=22;" edge="1" parent="1" source="8rWcteFT7_e4B7-Yw5ge-134">
          <mxGeometry relative="1" as="geometry">
            <mxPoint x="730" y="515" as="targetPoint" />
            <mxPoint x="870" y="330" as="sourcePoint" />
          </mxGeometry>
        </mxCell>
        <mxCell id="8rWcteFT7_e4B7-Yw5ge-136" value="" style="html=1;rounded=0;" vertex="1" parent="1">
          <mxGeometry x="600" y="140" width="20" height="21" as="geometry" />
        </mxCell>
        <mxCell id="8rWcteFT7_e4B7-Yw5ge-137" value="&lt;div&gt;&lt;div&gt;«delegate»&lt;/div&gt;&lt;/div&gt;" style="rounded=0;orthogonalLoop=1;jettySize=auto;html=1;dashed=1;dashPattern=8 8;spacingBottom=0;spacingTop=22;" edge="1" parent="1" source="8rWcteFT7_e4B7-Yw5ge-136">
          <mxGeometry relative="1" as="geometry">
            <mxPoint x="610" y="260" as="targetPoint" />
            <mxPoint x="870" y="330" as="sourcePoint" />
          </mxGeometry>
        </mxCell>
        <mxCell id="8rWcteFT7_e4B7-Yw5ge-138" value="" style="html=1;rounded=0;" vertex="1" parent="1">
          <mxGeometry x="360" y="328.5" width="20" height="21" as="geometry" />
        </mxCell>
        <mxCell id="8rWcteFT7_e4B7-Yw5ge-139" value="&lt;div&gt;&lt;div&gt;«delegate»&lt;/div&gt;&lt;/div&gt;" style="rounded=0;orthogonalLoop=1;jettySize=auto;html=1;dashed=1;dashPattern=8 8;spacingBottom=0;spacingTop=22;" edge="1" parent="1" source="8rWcteFT7_e4B7-Yw5ge-138">
          <mxGeometry relative="1" as="geometry">
            <mxPoint x="620" y="340" as="targetPoint" />
            <mxPoint x="620" y="171" as="sourcePoint" />
          </mxGeometry>
        </mxCell>
      </root>
    </mxGraphModel>
  </diagram>
</mxfile>
